# xmcd
#
# Track frame offsets:
#	150
#	4727
#	20655
#	34910
#	53650
#	72175
#	91124
#	105750
#	124707
#	140785
#	156452
#	173024
#
# Disc length: 2439 seconds
#
# Revision: 0
# Processed by: cddbd v1.5.2PL0 Copyright (c) Steve Scherf et al.
# Submitted via: EasyCDDAExtractor 11.0.2.1
#
DISCID=9509850c
DTITLE=Blade Icewood - Stackmaster
DYEAR=2004
DGENRE=Rap
TTITLE0=Intro
TTITLE1=Ride Out
TTITLE2=Walk Like Me
TTITLE3=Fa Sho (Feat. Catrina Harding)
TTITLE4=Detroit (Feat. Cash Out, G-Rock and O-Dog)
TTITLE5=Live It Up (Feat. K-Doe and Tone Scott)
TTITLE6=Come Roll '04 (Feat. G-Rock)
TTITLE7=Lay Low (Feat. Cash Out)
TTITLE8=Boy Would U (Remix Feat. H-Gee and G-Rock)
TTITLE9=Throw It Up (Feat. Vito, Baby L and Cash Out)
TTITLE10=My Life
TTITLE11=Outro (Feat. Chief Chedda)
EXTD=
EXTT0=
EXTT1=
EXTT2=
EXTT3=
EXTT4=
EXTT5=
EXTT6=
EXTT7=
EXTT8=
EXTT9=
EXTT10=
EXTT11=
PLAYORDER=
